<?xml version="1.0" encoding="UTF-8" standalone="no"?>
<!DOCTYPE svg PUBLIC "-//W3C//DTD SVG 1.1//EN" "http://www.w3.org/Graphics/SVG/1.1/DTD/svg11.dtd">
<svg width="100%" height="100%" viewBox="0 0 328 103" version="1.1" xmlns="http://www.w3.org/2000/svg"
     xml:space="preserve"
     style="fill-rule:evenodd;clip-rule:evenodd;stroke-linejoin:round;stroke-miterlimit:2;">
    <g transform="matrix(1,0,0,1,-235.5,-11.874)">
        <rect x="235.5" y="12.625" width="13.051" height="101.105" style="fill:rgb(34,34,34);fill-rule:nonzero;"/>
        <path d="M271.353,13.975C277.953,12.625 287.404,11.874 296.404,11.874C310.354,11.874 319.356,14.425 325.656,20.125C330.756,24.625 333.606,31.525 333.606,39.326C333.606,52.676 325.206,61.527 314.556,65.128L314.556,65.577C322.356,68.277 327.005,75.477 329.406,85.978C332.706,100.079 335.106,109.829 337.206,113.73L323.706,113.73C322.056,110.878 319.807,102.179 316.955,89.578C313.954,75.629 308.556,70.378 296.704,69.927L284.404,69.927L284.404,113.731L271.353,113.731L271.353,13.975ZM284.404,60.026L297.755,60.026C311.705,60.026 320.556,52.378 320.556,40.827C320.556,27.775 311.106,22.075 297.305,21.924C291.005,21.924 286.504,22.525 284.404,23.125L284.404,60.026Z" style="fill:rgb(34,34,34);fill-rule:nonzero;"/>
        <rect x="352.06" y="12.625" width="13.048" height="101.105" style="fill:rgb(34,34,34);fill-rule:nonzero;"/>
        <path d="M387.912,13.975C395.862,12.774 405.311,11.874 415.662,11.874C434.415,11.874 447.765,16.225 456.615,24.474C465.615,32.726 470.866,44.426 470.866,60.777C470.866,77.278 465.766,90.779 456.314,100.08C446.864,109.531 431.263,114.631 411.611,114.631C402.311,114.631 394.511,114.182 387.912,113.431L387.912,13.975ZM400.962,103.379C404.263,103.981 409.062,104.13 414.164,104.13C442.064,104.13 457.216,88.528 457.216,61.227C457.365,37.376 443.864,22.225 416.264,22.225C409.512,22.225 404.412,22.826 400.962,23.576L400.962,103.379Z" style="fill:rgb(34,34,34);fill-rule:nonzero;"/>
        <path d="M502.069,81.929L491.568,113.731L478.067,113.731L512.419,12.626L528.171,12.626L562.673,113.731L548.721,113.731L537.921,81.929L502.069,81.929ZM535.221,71.728L525.321,42.626C523.071,36.025 521.571,30.024 520.072,24.176L519.77,24.176C518.27,30.176 516.621,36.326 514.67,42.477L504.77,71.728L535.221,71.728Z" style="fill:rgb(34,34,34);fill-rule:nonzero;"/>
        <path d="M284.404,87.022L284.404,113.731L272.99,113.731C276.195,104.384 280.021,95.453 284.404,87.022ZM387.912,81.748C392.213,82.024 396.565,82.228 400.962,82.36L400.962,89.996C396.575,89.972 392.224,89.884 387.912,89.733L387.912,81.748ZM352.06,77.639C356.334,78.36 360.686,79.004 365.108,79.571L365.108,88.328C360.704,87.936 356.353,87.478 352.06,86.954L352.06,77.639ZM468.554,78.749C467.873,81.195 467.044,83.534 466.072,85.76C460.922,86.459 455.708,87.078 450.437,87.612C451.859,85.43 453.063,83.044 454.043,80.462C458.938,79.972 463.777,79.4 468.554,78.749ZM332.196,30.246C333.122,33.049 333.606,36.111 333.606,39.326C333.606,52.676 325.206,61.527 314.556,65.128L314.556,65.577C316.709,66.322 318.621,67.41 320.313,68.815C319.954,69.273 319.597,69.733 319.242,70.196C320.388,70.53 321.542,70.858 322.705,71.18C325.374,74.293 327.349,78.407 328.744,83.371C323.725,82.433 318.808,81.4 314.002,80.277C310.654,73.191 305.427,70.259 296.704,69.927L284.404,69.927L284.404,71.729C279.905,70.152 275.552,68.484 271.353,66.728L271.353,49.439C275.419,52.016 279.777,54.467 284.404,56.782L284.404,60.026L291.26,60.026C293.815,61.169 296.44,62.274 299.133,63.339C300.016,62.142 300.913,60.961 301.822,59.796C313.403,58.441 320.556,51.211 320.556,40.827C320.556,40.434 320.547,40.049 320.53,39.669C324.286,36.295 328.179,33.149 332.196,30.246ZM497.98,55.122C500.982,58.691 503.859,62.425 506.603,66.313L504.77,71.728L531.215,71.728C525.416,73.49 519.466,75.142 513.378,76.677C514.422,78.403 515.442,80.154 516.436,81.929L506.519,81.929C505.859,80.877 505.189,79.836 504.508,78.806C499.367,79.98 494.137,81.071 488.823,82.075L491.229,74.992C494.357,74.379 497.452,73.731 500.512,73.051C498.58,70.399 496.576,67.831 494.504,65.352L497.98,55.122ZM544.401,60.187L546.613,66.668C542.766,68.032 538.84,69.345 534.839,70.606L532.687,64.279C536.681,62.974 540.587,61.608 544.401,60.187ZM237.92,12.625C240.288,18.774 243.875,24.634 248.551,30.154L248.551,55.424C243.888,52.684 239.53,49.805 235.5,46.796L235.5,12.625L237.92,12.625ZM387.912,24.43L387.912,13.975C395.862,12.774 405.311,11.874 415.662,11.874C434.415,11.874 447.765,16.225 456.615,24.474C461.416,28.876 465.15,34.258 467.589,40.804C458.55,34.686 448.844,29.933 438.646,26.767C432.652,23.812 425.196,22.225 416.264,22.225C414.937,22.225 413.674,22.248 412.475,22.291C411.258,22.247 410.036,22.224 408.811,22.224C401.69,22.224 394.708,22.98 387.912,24.43ZM365.108,13.064L365.108,32.18C360.631,34.299 356.276,36.733 352.06,39.462L352.06,18.4C356.314,16.363 360.668,14.579 365.108,13.064Z" style="fill:rgb(24,144,255);"/>
    </g>
</svg>
